<svg width="24" height="24" viewBox="0 0 24 24" fill="none" xmlns="http://www.w3.org/2000/svg">
<path fill-rule="evenodd" clip-rule="evenodd" d="M11.2551 12.8791C10.6045 13.1843 9.86911 13.2605 9.16566 13.0943C8.95014 13.0434 8.7436 12.9711 8.54801 12.8791H7.6879C6.30795 12.8791 5.17643 13.9871 5.17643 15.3404V17.8534C5.52666 18.0422 5.93577 18.2094 6.39076 18.3502V15.8577C6.39076 15.6748 6.54243 15.5262 6.72901 15.5262C6.9156 15.5262 7.06726 15.6748 7.06726 15.8577V18.5322C8.83339 18.94 10.9716 18.94 12.7377 18.5322L12.7367 15.8567C12.7367 15.6738 12.8884 15.5252 13.075 15.5252C13.2616 15.5252 13.4132 15.6738 13.4132 15.8567V18.3492C13.8682 18.2084 14.2773 18.0412 14.6276 17.8524V15.3394C14.6276 13.987 13.497 12.8781 12.1161 12.8781L11.2551 12.8791ZM10.9955 7.10593C11.228 5.62057 12.5381 4.5 14.0978 4.5C15.831 4.5 17.2369 5.87779 17.2369 7.5763C17.2369 8.4505 16.8637 9.24254 16.263 9.80383H16.3129V9.80285C18.067 9.80285 19.5 11.208 19.5 12.9262V15.63H19.499C19.499 15.7425 19.4401 15.852 19.3354 15.9136C18.2088 16.5756 16.7061 16.9188 15.3043 17.0362V18.0443H15.3033C15.3033 18.1568 15.2444 18.2663 15.1387 18.3279C12.9874 19.5903 9.40126 19.7526 7.00449 19.1962L6.61535 19.1024C5.86999 18.9078 5.21642 18.6486 4.68858 18.3416C4.57683 18.2878 4.5 18.1744 4.5 18.0443V15.3395C4.5 13.6204 5.93385 12.2162 7.6871 12.2162H7.735C6.4598 11.0251 6.43487 9.03722 7.68211 7.81486C8.54322 6.97195 9.83638 6.6835 10.9959 7.10593L10.9955 7.10593ZM13.031 9.75391C14.6445 10.5127 16.5602 9.36961 16.5602 7.57625C16.5602 6.24344 15.4576 5.16292 14.0976 5.16292C12.7915 5.16292 11.7178 6.16131 11.639 7.4286C12.4293 7.94393 12.9572 8.79267 13.031 9.75391ZM12.9861 10.5655C13.5778 10.7855 14.2174 10.8247 14.8341 10.6799C15.0506 10.6291 15.2581 10.5558 15.4547 10.4638H16.3128V10.4648C17.6928 10.4648 18.8243 11.5727 18.8243 12.9261V15.4391C18.4741 15.6278 18.0659 15.7941 17.61 15.9359V13.636C17.61 13.4531 17.4583 13.3045 17.2717 13.3045C17.0851 13.3045 16.9335 13.4531 16.9335 13.636V16.1178C16.4276 16.2351 15.8798 16.3211 15.304 16.372V15.3404C15.304 14.4808 14.9458 13.7005 14.3681 13.1343C13.7644 12.5427 12.9782 12.2171 12.0682 12.2171C12.5331 11.781 12.8614 11.208 12.9861 10.5655ZM11.6431 8.28323C10.6812 7.34059 9.12163 7.34059 8.15968 8.28323C7.1978 9.22587 7.1978 10.7543 8.15968 11.697C9.12155 12.6397 10.6811 12.6396 11.6431 11.697C12.605 10.7543 12.605 9.22594 11.6431 8.28323Z" fill="#A04DED"/>
</svg>
