<svg width="24" height="24" viewBox="0 0 24 24" fill="none" xmlns="http://www.w3.org/2000/svg">
<path fill-rule="evenodd" clip-rule="evenodd" d="M4.87883 5.91767C4.63627 5.90691 4.43028 6.08494 4.41919 6.31538C4.40784 6.54558 4.59543 6.74108 4.83823 6.75161C5.08079 6.76238 5.28678 6.58435 5.29787 6.35391C5.30897 6.12371 5.12138 5.92844 4.87883 5.91767ZM23.4125 12.7883C23.3025 13.0247 23.1029 13.2061 22.8502 13.2989L21.5305 13.7845C21.4118 13.8283 21.2877 13.85 21.1639 13.85C21.0243 13.85 20.8843 13.8223 20.7525 13.767C20.5033 13.6627 20.3122 13.4731 20.2142 13.2334L20.0989 12.9515L19.0248 13.3769C19.0765 13.6658 19.0268 13.9661 18.8758 14.2267C18.6966 14.5358 18.3998 14.7601 18.04 14.8577C18.0251 14.8618 18.0102 14.8656 17.9954 14.8692C18.1129 15.2052 18.0894 15.5837 17.8975 15.9147C17.6144 16.4033 17.0496 16.6536 16.4995 16.5844C16.5158 16.8249 16.4634 17.0716 16.333 17.2966C16.1543 17.605 15.8585 17.8288 15.5005 17.9266C15.2766 17.9879 15.0459 17.9948 14.8258 17.9494C14.8328 18.176 14.7786 18.4067 14.6561 18.6184C14.4773 18.9269 14.169 19.1585 13.8102 19.254C13.6861 19.287 13.5606 19.3033 13.436 19.3033C13.2028 19.3033 12.9739 19.2461 12.7679 19.1339L12.404 18.9355C12.2235 19.1765 11.9653 19.3538 11.661 19.4411C11.5243 19.4804 11.3849 19.5 11.2465 19.5C11.017 19.5 10.7901 19.4466 10.5829 19.3413C10.2753 19.1851 10.0481 18.9331 9.92908 18.6388C9.54483 18.7938 9.09426 18.7869 8.70472 18.5892C8.42913 18.4493 8.21709 18.2298 8.09026 17.9716C7.68508 18.1796 7.18208 18.1975 6.74765 17.9771C6.41508 17.8084 6.17152 17.5258 6.06159 17.1815C5.99906 16.9855 5.98418 16.7835 6.0157 16.5876C5.77693 16.5933 5.53665 16.5411 5.31779 16.4301C4.98523 16.2614 4.74167 15.9788 4.63174 15.6344C4.5218 15.2901 4.55912 14.9269 4.73713 14.6112L5.09238 13.9809C5.01296 13.8017 4.97388 13.6059 4.93631 13.4148C4.86824 13.0675 4.81529 12.8524 4.65342 12.7928C4.55811 12.7577 4.31102 12.6557 3.88517 12.4755L3.74246 12.7821C3.63303 13.0173 3.43284 13.1982 3.17894 13.2915C3.05917 13.3355 2.93462 13.3573 2.81032 13.3573C2.67089 13.3573 2.53196 13.3298 2.40085 13.2748L1.10614 12.7318C0.593045 12.5167 0.360073 11.9452 0.586742 11.4583L3.55916 5.07536C3.66883 4.84013 3.86878 4.65923 4.12268 4.5659C4.37657 4.47258 4.65291 4.47856 4.90076 4.58265L6.19547 5.12561C6.70857 5.34074 6.94154 5.91217 6.71487 6.39913L6.49198 6.87796L7.33462 7.24695C7.34369 7.25102 7.35252 7.25509 7.36109 7.25987C7.82426 7.5073 8.30786 7.39962 8.92004 7.26346C9.7193 7.08567 10.7026 6.86743 11.8501 7.5073C13.4353 6.57717 14.6531 7.04858 15.5522 7.39747C16.2221 7.65734 16.621 7.79493 17.0239 7.59584L17.7586 7.22254L17.5564 6.72744C17.3537 6.23115 17.6141 5.67072 18.1373 5.47809L19.457 4.99256C19.9802 4.80017 20.5707 5.0476 20.7734 5.5439L23.4311 12.0505C23.529 12.2896 23.5224 12.5519 23.4125 12.7883ZM6.03612 6.11389C6.09739 5.98204 6.03436 5.82746 5.89543 5.76907L4.60072 5.22611C4.56568 5.21152 4.52836 5.2041 4.49104 5.2041C4.45726 5.2041 4.42322 5.21008 4.39044 5.22205C4.32136 5.24741 4.26715 5.29623 4.23765 5.3594L1.26498 11.7423C1.20371 11.8742 1.26675 12.0288 1.40567 12.0872L2.70039 12.6301C2.76695 12.6581 2.84183 12.6595 2.91092 12.6342C2.98 12.6088 3.03421 12.56 3.06371 12.4968L6.03612 6.11389ZM6.3997 15.7488L7.24738 14.3564C7.38706 14.0518 7.25746 13.6938 6.94784 13.537C6.61982 13.3707 6.21035 13.4885 6.03512 13.7993L5.39091 14.9429C5.30645 15.0927 5.28905 15.2657 5.34149 15.4298C5.39394 15.5942 5.50967 15.7287 5.6675 15.8089C5.90249 15.9281 6.19018 15.9029 6.3997 15.7488ZM8.01185 17.0898L8.94853 15.3681C9.00501 15.0953 8.86558 14.8091 8.60664 14.678C8.36938 14.5579 8.07967 14.5842 7.8699 14.7409L6.82051 16.4897C6.73605 16.6395 6.71865 16.8123 6.7711 16.9766C6.82354 17.141 6.93927 17.2755 7.09711 17.3557C7.42463 17.5222 7.83485 17.4028 8.01185 17.0898ZM9.9079 17.7914L10.7384 16.2765C10.7947 16.0037 10.6552 15.718 10.3965 15.5868C10.1386 15.4562 9.81259 15.5033 9.60509 15.6962L8.70018 17.3595C8.68253 17.6096 8.81994 17.8496 9.05417 17.9685C9.34564 18.1159 9.70871 18.0393 9.9079 17.7914ZM11.8448 18.4576L12.4628 17.361C12.5843 17.1451 12.5634 16.8769 12.4091 16.6775C12.3501 16.6014 12.2752 16.5399 12.1864 16.4949C11.9285 16.3643 11.6025 16.4114 11.395 16.6048L10.5806 18.0903C10.5531 18.348 10.6903 18.5969 10.9328 18.7199C11.0907 18.7998 11.2727 18.8166 11.4459 18.7668C11.6186 18.7173 11.7606 18.6074 11.8448 18.4576ZM13.7507 17.4454C13.7308 17.4349 13.2762 17.1839 13.2762 17.1839C13.2595 17.3598 13.2073 17.5332 13.1171 17.6931L12.7641 18.3196L13.1372 18.523C13.2792 18.6003 13.4469 18.6192 13.6097 18.5758C13.7782 18.5311 13.9224 18.4229 14.0058 18.2789C14.176 17.9848 14.0616 17.611 13.7507 17.4454ZM18.2377 13.3286C18.1787 13.2133 18.0851 13.1185 17.9669 13.0546L14.4567 11.1558C13.8606 10.8333 13.1161 11.1194 12.2538 11.4506C11.6093 11.6983 10.8847 11.9766 10.1505 11.9766C9.43313 11.9766 8.70673 11.711 8.0358 10.8919C7.94756 10.7847 7.91402 10.6514 7.941 10.5171C7.96823 10.3824 8.05194 10.2707 8.17624 10.2018C9.16612 9.65353 10.0019 9.05506 10.661 8.42308C10.8325 8.25869 11.0054 8.10745 11.1787 7.96986C10.4192 7.65303 9.76973 7.79709 9.08897 7.94856C8.41627 8.09812 7.72063 8.25294 7.01062 7.88036L6.19169 7.5219L4.1847 11.8313C4.59139 12.0034 4.83899 12.1058 4.92144 12.1362C5.41613 12.3185 5.55656 12.7667 5.63649 13.1434C6.06638 12.7426 6.73832 12.633 7.2973 12.9161C7.71156 13.1259 7.97302 13.5071 8.03252 13.9216C8.34089 13.8677 8.6669 13.9106 8.95609 14.057C9.30328 14.2329 9.54659 14.5299 9.64946 14.8699C10.004 14.7629 10.3988 14.79 10.746 14.9656C11.0932 15.1415 11.3365 15.4382 11.4394 15.7783C11.7941 15.6711 12.189 15.6981 12.5359 15.8742C12.7016 15.9582 12.8445 16.0697 12.9618 16.2061L14.8089 17.1985L14.8096 17.1987C14.9574 17.2767 15.1296 17.2947 15.295 17.2497C15.4622 17.204 15.5998 17.1001 15.6828 16.957C15.8522 16.6646 15.737 16.2915 15.4259 16.1252C15.4057 16.1145 12.8327 14.7333 12.8327 14.7333C12.6542 14.638 12.5909 14.4234 12.6912 14.2537C12.7916 14.0843 13.018 14.0242 13.1965 14.1195L16.3721 15.8154L16.3726 15.8156C16.6838 15.9778 17.0761 15.8699 17.2473 15.5746C17.4167 15.2822 17.3015 14.9091 16.9904 14.7428C16.9904 14.7428 16.9901 14.7428 16.9901 14.7426C16.0925 14.2654 15.3442 13.867 14.5721 13.4475C14.3944 13.3509 14.3326 13.136 14.4345 12.967C14.5363 12.7983 14.763 12.7397 14.9408 12.8364C15.7103 13.2544 16.4571 13.6521 17.3537 14.1288C17.5002 14.2066 17.6714 14.2248 17.8358 14.18C18.0039 14.1343 18.1424 14.0302 18.2256 13.8864C18.3262 13.7139 18.3305 13.5102 18.2377 13.3286ZM19.8307 12.2946L18.0286 7.883L17.3698 8.21753C16.6384 8.57886 15.9432 8.30894 15.2711 8.04835C14.3611 7.69539 13.4204 7.33023 12.0642 8.21322C11.7755 8.40059 11.481 8.63749 11.1885 8.91794C10.5418 9.53819 9.74099 10.1252 8.80532 10.6653C9.7662 11.6464 10.7949 11.2511 11.9752 10.7976C12.929 10.4312 13.9153 10.0522 14.8238 10.5437L18.334 12.4425C18.478 12.5205 18.605 12.6203 18.7104 12.738L19.8307 12.2946ZM22.7393 12.3042L20.0815 5.79755C20.0392 5.69417 19.9348 5.63052 19.8243 5.63052C19.7913 5.63052 19.7578 5.63626 19.725 5.64823L18.4053 6.13376C18.2636 6.18592 18.193 6.33763 18.248 6.47188L20.9058 12.9785C20.9322 13.0429 20.9839 13.0941 21.0517 13.1226C21.1196 13.1511 21.1942 13.1527 21.2623 13.1278L22.5819 12.6423C22.6498 12.6172 22.7037 12.5681 22.7337 12.5038C22.7637 12.4396 22.7658 12.3686 22.7393 12.3042ZM19.4139 6.32711C19.1716 6.32711 18.9742 6.51471 18.9742 6.74443C18.9742 6.9744 19.1718 7.16176 19.4139 7.16176C19.6562 7.16176 19.8536 6.97416 19.8536 6.74443C19.8536 6.51447 19.6559 6.32711 19.4139 6.32711Z" fill="#DC2626"/>
</svg>
