<svg width="24" height="24" viewBox="0 0 24 24" fill="none" xmlns="http://www.w3.org/2000/svg">
<path d="M24 0V24H0L0 0L24 0Z" fill="white" fill-opacity="0.01"/>
<path d="M16.5 7.5H16.502M15 12C15 13.6569 13.6569 15 12 15C10.3431 15 9 13.6569 9 12C9 10.3431 10.3431 9 12 9C13.6569 9 15 10.3431 15 12ZM12 20.5V20.5C14.3271 20.5 15.4906 20.5 16.4286 20.1816C18.195 19.582 19.582 18.195 20.1816 16.4286C20.5 15.4906 20.5 14.3271 20.5 12V12C20.5 9.67293 20.5 8.5094 20.1816 7.57136C19.582 5.80502 18.195 4.41801 16.4286 3.81842C15.4906 3.5 14.3271 3.5 12 3.5V3.5C9.67293 3.5 8.5094 3.5 7.57136 3.81842C5.80502 4.41801 4.41801 5.80502 3.81842 7.57136C3.5 8.5094 3.5 9.67293 3.5 12V12C3.5 14.3271 3.5 15.4906 3.81842 16.4286C4.41801 18.195 5.80502 19.582 7.57136 20.1816C8.5094 20.5 9.67293 20.5 12 20.5Z" stroke="#111827" stroke-width="2" stroke-linecap="round" stroke-linejoin="round"/>
</svg>
