<svg width="25" height="24" viewBox="0 0 25 24" fill="none" xmlns="http://www.w3.org/2000/svg">
<path d="M24.3923 0V24H0.392334L0.392334 0L24.3923 0Z" fill="white" fill-opacity="0.01"/>
<path d="M8.39233 8H8.39429M8.39233 11V16M11.3923 10V12.0003M11.3923 12.0003V16M11.3923 12.0003C11.3923 11.5003 12.3092 10.217 13.3923 10.0004C14.773 9.72429 16.3923 10.5004 16.3923 12.0003V16.0003M11.8923 20.5H12.8923C16.6636 20.5 18.5492 20.5 19.7208 19.3284C20.8923 18.1569 20.8923 16.2712 20.8923 12.5V11.5C20.8923 7.72876 20.8923 5.84315 19.7208 4.67157C18.5492 3.5 16.6636 3.5 12.8923 3.5H11.8923C8.1211 3.5 6.23548 3.5 5.06391 4.67157C3.89233 5.84315 3.89233 7.72876 3.89233 11.5V12.5C3.89233 16.2712 3.89233 18.1569 5.06391 19.3284C6.23548 20.5 8.1211 20.5 11.8923 20.5Z" stroke="#111827" stroke-width="2" stroke-linecap="round"/>
</svg>
