<svg width="24" height="24" viewBox="0 0 24 24" fill="none" xmlns="http://www.w3.org/2000/svg">
<path d="M12 5.25022C15.7279 5.25022 18.7498 8.27214 18.7498 12C18.7498 15.7279 15.7279 18.7498 12 18.7498C8.27214 18.7498 5.25022 15.7279 5.25022 12C5.25022 8.27214 8.27214 5.25022 12 5.25022ZM12 4.5C7.86427 4.5 4.5 7.86427 4.5 12C4.5 16.1357 7.86427 19.5 12 19.5C16.1357 19.5 19.5 16.1357 19.5 12C19.5 7.86427 16.1357 4.5 12 4.5ZM12 8.25036C14.0714 8.25036 15.7496 9.92936 15.7496 12C15.7496 14.0714 14.0713 15.7496 12 15.7496C9.92866 15.7496 8.25036 14.0713 8.25036 12C8.25036 9.92866 9.92866 8.25036 12 8.25036ZM12 7.50014C9.51878 7.50014 7.50014 9.51878 7.50014 12C7.50014 14.4812 9.51878 16.4999 12 16.4999C14.4812 16.4999 16.4999 14.4812 16.4999 12C16.4999 9.51878 14.4812 7.50014 12 7.50014ZM12 11.2498C12.4141 11.2498 12.7502 11.5852 12.7502 12C12.7502 12.4141 12.4141 12.7502 12 12.7502C11.5859 12.7502 11.2498 12.4141 11.2498 12C11.2498 11.5859 11.5859 11.2498 12 11.2498ZM12 10.5003C11.1731 10.5003 10.5003 11.1731 10.5003 12C10.5003 12.8268 11.1732 13.4997 12 13.4997C12.8268 13.4997 13.4997 12.8268 13.4997 12C13.4997 11.1731 12.8268 10.5003 12 10.5003Z" fill="#2563EB"/>
</svg>
