<svg width="24" height="24" viewBox="0 0 24 24" fill="none" xmlns="http://www.w3.org/2000/svg">
<path d="M24 0V24H0L0 0L24 0Z" fill="white" fill-opacity="0.01"/>
<path d="M19.6812 8.78993L20.9356 6.58535C21.1585 6.19363 20.8212 5.72031 20.3782 5.80313L19.6729 5.93497C19.2631 6.01157 18.8548 5.83005 18.5478 5.54804C17.8197 4.87933 16.5883 4.32532 14.9291 4.65857C12.834 5.07938 11.9358 6.64716 11.7059 8.50138C11.634 9.0817 11.1683 9.5646 10.5864 9.50693C8.75095 9.325 7.03333 8.63605 5.53323 7.1473C4.92757 6.54621 3.88951 6.69816 3.73038 7.5365C3.22954 10.1749 3.13597 14.7873 7.87219 16.7591C8.23716 16.9111 8.35514 17.3887 8.05093 17.6412C6.94785 18.5567 5.80609 19.0065 4.42503 19.422C4.23287 19.4798 4.2338 19.75 4.42817 19.7999C9.12823 21.0068 13.7265 20.4647 16.079 18.5557C18.4869 16.6018 19.6972 13.7429 19.5418 9.36675C19.5347 9.16556 19.5816 8.9649 19.6812 8.78993Z" stroke="#111827" stroke-width="2" stroke-linejoin="round"/>
</svg>
