<svg width="24" height="24" viewBox="0 0 24 24" fill="none" xmlns="http://www.w3.org/2000/svg">
<path d="M12 4.65441C7.85504 4.65441 4.17727 7.40112 1.89398 11.6365C1.83686 11.7409 1.80612 11.8664 1.80612 11.9952C1.80612 12.124 1.83686 12.2495 1.89398 12.3539C4.17727 16.5894 7.85504 19.3456 12 19.3456C16.145 19.3456 19.8227 16.5894 22.106 12.3539C22.1631 12.2495 22.1939 12.124 22.1939 11.9952C22.1939 11.8664 22.1631 11.7409 22.106 11.6365C19.8227 7.40112 16.145 4.65441 12 4.65441ZM12 5.87868C15.7135 5.87868 19.0047 8.27612 21.136 12C19.0046 15.7214 15.712 18.1213 12 18.1213C8.28802 18.1213 4.9954 15.7214 2.86404 12C4.99531 8.27612 8.28654 5.87868 12 5.87868Z" fill="#1CA54F"/>
<circle cx="11.9024" cy="11.9025" r="3.20809" stroke="#1CA54F" stroke-width="0.9"/>
</svg>
