<svg width="24" height="24" viewBox="0 0 24 24" fill="none" xmlns="http://www.w3.org/2000/svg">
<path d="M12 5.15442C8.13718 5.15442 4.70975 7.71417 2.58187 11.6613C2.52865 11.7586 2.5 11.8755 2.5 11.9956C2.5 12.1156 2.52865 12.2325 2.58187 12.3298C4.70975 16.277 8.13718 18.8456 12 18.8456C15.8628 18.8456 19.2903 16.277 21.4181 12.3298C21.4714 12.2325 21.5 12.1156 21.5 11.9956C21.5 11.8755 21.4714 11.7586 21.4181 11.6613C19.2903 7.71417 15.8628 5.15442 12 5.15442ZM12 6.29535C15.4607 6.29535 18.5279 8.5296 20.5141 12C18.5278 15.4681 15.4593 17.7047 12 17.7047C8.54069 17.7047 5.47219 15.4681 3.48591 12C5.47211 8.5296 8.53931 6.29535 12 6.29535Z" fill="#1CA54F"/>
<path d="M11.9092 8.95021C13.5434 8.95026 14.8682 10.275 14.8682 11.9092C14.8681 13.5434 13.5434 14.8681 11.9092 14.8682C10.2749 14.8682 8.95024 13.5434 8.9502 11.9092C8.9502 10.2749 10.2749 8.95021 11.9092 8.95021Z" stroke="#1CA54F" stroke-width="0.9"/>
</svg>
